<mxfile host="app.diagrams.net" modified="2024-06-07T13:44:36.017Z" agent="Mozilla/5.0 (Windows NT 10.0; Win64; x64) AppleWebKit/537.36 (KHTML, like Gecko) Chrome/125.0.0.0 Safari/537.36" etag="mL8TZsM3kq8-HbYUkgXU" version="24.5.0" type="device" pages="3">
  <diagram name="System Context" id="Z_SHgmxFp5Rvtz2WFQG1">
    <mxGraphModel dx="1430" dy="781" grid="1" gridSize="10" guides="1" tooltips="1" connect="1" arrows="1" fold="1" page="1" pageScale="1" pageWidth="827" pageHeight="1169" math="0" shadow="0">
      <root>
        <mxCell id="0" />
        <mxCell id="1" parent="0" />
        <object placeholders="1" c4Name="To Do System" c4Type="Software System" c4Description="Allows the user to view the To Do items, add new ones and change status of existing ones" label="&lt;font style=&quot;font-size: 16px&quot;&gt;&lt;b&gt;%c4Name%&lt;/b&gt;&lt;/font&gt;&lt;div&gt;[%c4Type%]&lt;/div&gt;&lt;br&gt;&lt;div&gt;&lt;font style=&quot;font-size: 11px&quot;&gt;&lt;font color=&quot;#cccccc&quot;&gt;%c4Description%&lt;/font&gt;&lt;/div&gt;" id="0WNXEe_Mm6PyMYtqJF2j-29">
          <mxCell style="rounded=1;whiteSpace=wrap;html=1;labelBackgroundColor=none;fillColor=#1061B0;fontColor=#ffffff;align=center;arcSize=10;strokeColor=#0D5091;metaEdit=1;resizable=0;points=[[0.25,0,0],[0.5,0,0],[0.75,0,0],[1,0.25,0],[1,0.5,0],[1,0.75,0],[0.75,1,0],[0.5,1,0],[0.25,1,0],[0,0.75,0],[0,0.5,0],[0,0.25,0]];" vertex="1" parent="1">
            <mxGeometry x="294" y="325" width="240" height="120" as="geometry" />
          </mxCell>
        </object>
        <object placeholders="1" c4Name="Trello" c4Type="Software System" c4Description="Stores the To Do items" label="&lt;font style=&quot;font-size: 16px&quot;&gt;&lt;b&gt;%c4Name%&lt;/b&gt;&lt;/font&gt;&lt;div&gt;[%c4Type%]&lt;/div&gt;&lt;br&gt;&lt;div&gt;&lt;font style=&quot;font-size: 11px&quot;&gt;&lt;font color=&quot;#cccccc&quot;&gt;%c4Description%&lt;/font&gt;&lt;/div&gt;" id="0WNXEe_Mm6PyMYtqJF2j-30">
          <mxCell style="rounded=1;whiteSpace=wrap;html=1;labelBackgroundColor=none;fillColor=#8C8496;fontColor=#ffffff;align=center;arcSize=10;strokeColor=#736782;metaEdit=1;resizable=0;points=[[0.25,0,0],[0.5,0,0],[0.75,0,0],[1,0.25,0],[1,0.5,0],[1,0.75,0],[0.75,1,0],[0.5,1,0],[0.25,1,0],[0,0.75,0],[0,0.5,0],[0,0.25,0]];" vertex="1" parent="1">
            <mxGeometry x="294" y="530" width="240" height="120" as="geometry" />
          </mxCell>
        </object>
        <object placeholders="1" c4Name="To Do app user" c4Type="Person" c4Description="A user of the To Do app" label="&lt;font style=&quot;font-size: 16px&quot;&gt;&lt;b&gt;%c4Name%&lt;/b&gt;&lt;/font&gt;&lt;div&gt;[%c4Type%]&lt;/div&gt;&lt;br&gt;&lt;div&gt;&lt;font style=&quot;font-size: 11px&quot;&gt;&lt;font color=&quot;#cccccc&quot;&gt;%c4Description%&lt;/font&gt;&lt;/div&gt;" id="0WNXEe_Mm6PyMYtqJF2j-31">
          <mxCell style="html=1;fontSize=11;dashed=0;whiteSpace=wrap;fillColor=#083F75;strokeColor=#06315C;fontColor=#ffffff;shape=mxgraph.c4.person2;align=center;metaEdit=1;points=[[0.5,0,0],[1,0.5,0],[1,0.75,0],[0.75,1,0],[0.5,1,0],[0.25,1,0],[0,0.75,0],[0,0.5,0]];resizable=0;" vertex="1" parent="1">
            <mxGeometry x="314" y="60" width="200" height="180" as="geometry" />
          </mxCell>
        </object>
        <mxCell id="0WNXEe_Mm6PyMYtqJF2j-32" value="Legend" style="shape=table;startSize=30;container=1;collapsible=0;childLayout=tableLayout;fontSize=16;align=left;verticalAlign=top;fillColor=none;strokeColor=none;fontColor=#4D4D4D;fontStyle=1;spacingLeft=6;spacing=0;resizable=0;" vertex="1" parent="1">
          <mxGeometry x="647" width="180" height="210" as="geometry" />
        </mxCell>
        <mxCell id="0WNXEe_Mm6PyMYtqJF2j-33" value="" style="shape=tableRow;horizontal=0;startSize=0;swimlaneHead=0;swimlaneBody=0;strokeColor=inherit;top=0;left=0;bottom=0;right=0;collapsible=0;dropTarget=0;fillColor=none;points=[[0,0.5],[1,0.5]];portConstraint=eastwest;fontSize=12;" vertex="1" parent="0WNXEe_Mm6PyMYtqJF2j-32">
          <mxGeometry y="30" width="180" height="30" as="geometry" />
        </mxCell>
        <mxCell id="0WNXEe_Mm6PyMYtqJF2j-34" value="Person" style="shape=partialRectangle;html=1;whiteSpace=wrap;connectable=0;strokeColor=inherit;overflow=hidden;fillColor=#1E4074;top=0;left=0;bottom=0;right=0;pointerEvents=1;fontSize=12;align=left;fontColor=#FFFFFF;gradientColor=none;spacingLeft=10;spacingRight=4;" vertex="1" parent="0WNXEe_Mm6PyMYtqJF2j-33">
          <mxGeometry width="180" height="30" as="geometry">
            <mxRectangle width="180" height="30" as="alternateBounds" />
          </mxGeometry>
        </mxCell>
        <mxCell id="0WNXEe_Mm6PyMYtqJF2j-35" value="" style="shape=tableRow;horizontal=0;startSize=0;swimlaneHead=0;swimlaneBody=0;strokeColor=inherit;top=0;left=0;bottom=0;right=0;collapsible=0;dropTarget=0;fillColor=none;points=[[0,0.5],[1,0.5]];portConstraint=eastwest;fontSize=12;" vertex="1" parent="0WNXEe_Mm6PyMYtqJF2j-32">
          <mxGeometry y="60" width="180" height="30" as="geometry" />
        </mxCell>
        <mxCell id="0WNXEe_Mm6PyMYtqJF2j-36" value="Software System" style="shape=partialRectangle;html=1;whiteSpace=wrap;connectable=0;strokeColor=inherit;overflow=hidden;fillColor=#3162AF;top=0;left=0;bottom=0;right=0;pointerEvents=1;fontSize=12;align=left;fontColor=#FFFFFF;gradientColor=none;spacingLeft=10;spacingRight=4;" vertex="1" parent="0WNXEe_Mm6PyMYtqJF2j-35">
          <mxGeometry width="180" height="30" as="geometry">
            <mxRectangle width="180" height="30" as="alternateBounds" />
          </mxGeometry>
        </mxCell>
        <mxCell id="0WNXEe_Mm6PyMYtqJF2j-37" value="" style="shape=tableRow;horizontal=0;startSize=0;swimlaneHead=0;swimlaneBody=0;strokeColor=inherit;top=0;left=0;bottom=0;right=0;collapsible=0;dropTarget=0;fillColor=none;points=[[0,0.5],[1,0.5]];portConstraint=eastwest;fontSize=12;" vertex="1" parent="0WNXEe_Mm6PyMYtqJF2j-32">
          <mxGeometry y="90" width="180" height="30" as="geometry" />
        </mxCell>
        <mxCell id="0WNXEe_Mm6PyMYtqJF2j-38" value="Container" style="shape=partialRectangle;html=1;whiteSpace=wrap;connectable=0;strokeColor=inherit;overflow=hidden;fillColor=#52a2d8;top=0;left=0;bottom=0;right=0;pointerEvents=1;fontSize=12;align=left;fontColor=#FFFFFF;gradientColor=none;spacingLeft=10;spacingRight=4;" vertex="1" parent="0WNXEe_Mm6PyMYtqJF2j-37">
          <mxGeometry width="180" height="30" as="geometry">
            <mxRectangle width="180" height="30" as="alternateBounds" />
          </mxGeometry>
        </mxCell>
        <mxCell id="0WNXEe_Mm6PyMYtqJF2j-39" value="" style="shape=tableRow;horizontal=0;startSize=0;swimlaneHead=0;swimlaneBody=0;strokeColor=inherit;top=0;left=0;bottom=0;right=0;collapsible=0;dropTarget=0;fillColor=none;points=[[0,0.5],[1,0.5]];portConstraint=eastwest;fontSize=12;" vertex="1" parent="0WNXEe_Mm6PyMYtqJF2j-32">
          <mxGeometry y="120" width="180" height="30" as="geometry" />
        </mxCell>
        <mxCell id="0WNXEe_Mm6PyMYtqJF2j-40" value="Component" style="shape=partialRectangle;html=1;whiteSpace=wrap;connectable=0;strokeColor=inherit;overflow=hidden;fillColor=#7dbef2;top=0;left=0;bottom=0;right=0;pointerEvents=1;fontSize=12;align=left;fontColor=#FFFFFF;gradientColor=none;spacingLeft=10;spacingRight=4;" vertex="1" parent="0WNXEe_Mm6PyMYtqJF2j-39">
          <mxGeometry width="180" height="30" as="geometry">
            <mxRectangle width="180" height="30" as="alternateBounds" />
          </mxGeometry>
        </mxCell>
        <mxCell id="0WNXEe_Mm6PyMYtqJF2j-41" value="" style="shape=tableRow;horizontal=0;startSize=0;swimlaneHead=0;swimlaneBody=0;strokeColor=inherit;top=0;left=0;bottom=0;right=0;collapsible=0;dropTarget=0;fillColor=none;points=[[0,0.5],[1,0.5]];portConstraint=eastwest;fontSize=12;" vertex="1" parent="0WNXEe_Mm6PyMYtqJF2j-32">
          <mxGeometry y="150" width="180" height="30" as="geometry" />
        </mxCell>
        <mxCell id="0WNXEe_Mm6PyMYtqJF2j-42" value="External Person" style="shape=partialRectangle;html=1;whiteSpace=wrap;connectable=0;strokeColor=inherit;overflow=hidden;fillColor=#6b6477;top=0;left=0;bottom=0;right=0;pointerEvents=1;fontSize=12;align=left;fontColor=#FFFFFF;gradientColor=none;spacingLeft=10;spacingRight=4;" vertex="1" parent="0WNXEe_Mm6PyMYtqJF2j-41">
          <mxGeometry width="180" height="30" as="geometry">
            <mxRectangle width="180" height="30" as="alternateBounds" />
          </mxGeometry>
        </mxCell>
        <mxCell id="0WNXEe_Mm6PyMYtqJF2j-43" value="" style="shape=tableRow;horizontal=0;startSize=0;swimlaneHead=0;swimlaneBody=0;strokeColor=inherit;top=0;left=0;bottom=0;right=0;collapsible=0;dropTarget=0;fillColor=none;points=[[0,0.5],[1,0.5]];portConstraint=eastwest;fontSize=12;" vertex="1" parent="0WNXEe_Mm6PyMYtqJF2j-32">
          <mxGeometry y="180" width="180" height="30" as="geometry" />
        </mxCell>
        <mxCell id="0WNXEe_Mm6PyMYtqJF2j-44" value="External Software System" style="shape=partialRectangle;html=1;whiteSpace=wrap;connectable=0;strokeColor=inherit;overflow=hidden;fillColor=#8b8496;top=0;left=0;bottom=0;right=0;pointerEvents=1;fontSize=12;align=left;fontColor=#FFFFFF;gradientColor=none;spacingLeft=10;spacingRight=4;" vertex="1" parent="0WNXEe_Mm6PyMYtqJF2j-43">
          <mxGeometry width="180" height="30" as="geometry">
            <mxRectangle width="180" height="30" as="alternateBounds" />
          </mxGeometry>
        </mxCell>
        <object placeholders="1" c4Type="Relationship" c4Description="Views, adds, and changes status of tasks using" label="&lt;div style=&quot;text-align: left&quot;&gt;&lt;div style=&quot;text-align: center&quot;&gt;&lt;b&gt;%c4Description%&lt;/b&gt;&lt;/div&gt;" id="0WNXEe_Mm6PyMYtqJF2j-45">
          <mxCell style="endArrow=blockThin;html=1;fontSize=10;fontColor=#404040;strokeWidth=1;endFill=1;strokeColor=#828282;elbow=vertical;metaEdit=1;endSize=14;startSize=14;jumpStyle=arc;jumpSize=16;rounded=0;edgeStyle=orthogonalEdgeStyle;exitX=0.5;exitY=1;exitDx=0;exitDy=0;exitPerimeter=0;entryX=0.5;entryY=0;entryDx=0;entryDy=0;entryPerimeter=0;" edge="1" parent="1" source="0WNXEe_Mm6PyMYtqJF2j-31" target="0WNXEe_Mm6PyMYtqJF2j-29">
            <mxGeometry width="240" relative="1" as="geometry">
              <mxPoint x="540" y="240" as="sourcePoint" />
              <mxPoint x="780" y="240" as="targetPoint" />
            </mxGeometry>
          </mxCell>
        </object>
        <object placeholders="1" c4Type="Relationship" c4Description="Gets information from, and makes changes to items using" label="&lt;div style=&quot;text-align: left&quot;&gt;&lt;div style=&quot;text-align: center&quot;&gt;&lt;b&gt;%c4Description%&lt;/b&gt;&lt;/div&gt;" id="0WNXEe_Mm6PyMYtqJF2j-47">
          <mxCell style="endArrow=blockThin;html=1;fontSize=10;fontColor=#404040;strokeWidth=1;endFill=1;strokeColor=#828282;elbow=vertical;metaEdit=1;endSize=14;startSize=14;jumpStyle=arc;jumpSize=16;rounded=0;edgeStyle=orthogonalEdgeStyle;entryX=0.5;entryY=0;entryDx=0;entryDy=0;entryPerimeter=0;exitX=0.5;exitY=1;exitDx=0;exitDy=0;exitPerimeter=0;" edge="1" parent="1" source="0WNXEe_Mm6PyMYtqJF2j-29" target="0WNXEe_Mm6PyMYtqJF2j-30">
            <mxGeometry width="240" relative="1" as="geometry">
              <mxPoint x="510" y="470" as="sourcePoint" />
              <mxPoint x="780" y="310" as="targetPoint" />
            </mxGeometry>
          </mxCell>
        </object>
      </root>
    </mxGraphModel>
  </diagram>
  <diagram id="oxGtkC-UO244yypAQu6V" name="Containers">
    <mxGraphModel dx="2074" dy="1132" grid="1" gridSize="10" guides="1" tooltips="1" connect="1" arrows="1" fold="1" page="1" pageScale="1" pageWidth="827" pageHeight="1169" math="0" shadow="0">
      <root>
        <mxCell id="0" />
        <mxCell id="1" parent="0" />
        <object placeholders="1" c4Name="Trello" c4Type="Software System" c4Description="Stores the To Do items" label="&lt;font style=&quot;font-size: 16px&quot;&gt;&lt;b&gt;%c4Name%&lt;/b&gt;&lt;/font&gt;&lt;div&gt;[%c4Type%]&lt;/div&gt;&lt;br&gt;&lt;div&gt;&lt;font style=&quot;font-size: 11px&quot;&gt;&lt;font color=&quot;#cccccc&quot;&gt;%c4Description%&lt;/font&gt;&lt;/div&gt;" id="5LWan2oKhqf2gRx4XjIY-1">
          <mxCell style="rounded=1;whiteSpace=wrap;html=1;labelBackgroundColor=none;fillColor=#8C8496;fontColor=#ffffff;align=center;arcSize=10;strokeColor=#736782;metaEdit=1;resizable=0;points=[[0.25,0,0],[0.5,0,0],[0.75,0,0],[1,0.25,0],[1,0.5,0],[1,0.75,0],[0.75,1,0],[0.5,1,0],[0.25,1,0],[0,0.75,0],[0,0.5,0],[0,0.25,0]];" vertex="1" parent="1">
            <mxGeometry x="294" y="770" width="240" height="120" as="geometry" />
          </mxCell>
        </object>
        <object placeholders="1" c4Name="To Do app user" c4Type="Person" c4Description="A user of the To Do app" label="&lt;font style=&quot;font-size: 16px&quot;&gt;&lt;b&gt;%c4Name%&lt;/b&gt;&lt;/font&gt;&lt;div&gt;[%c4Type%]&lt;/div&gt;&lt;br&gt;&lt;div&gt;&lt;font style=&quot;font-size: 11px&quot;&gt;&lt;font color=&quot;#cccccc&quot;&gt;%c4Description%&lt;/font&gt;&lt;/div&gt;" id="5LWan2oKhqf2gRx4XjIY-2">
          <mxCell style="html=1;fontSize=11;dashed=0;whiteSpace=wrap;fillColor=#083F75;strokeColor=#06315C;fontColor=#ffffff;shape=mxgraph.c4.person2;align=center;metaEdit=1;points=[[0.5,0,0],[1,0.5,0],[1,0.75,0],[0.75,1,0],[0.5,1,0],[0.25,1,0],[0,0.75,0],[0,0.5,0]];resizable=0;" vertex="1" parent="1">
            <mxGeometry x="314" y="40" width="200" height="180" as="geometry" />
          </mxCell>
        </object>
        <mxCell id="5LWan2oKhqf2gRx4XjIY-3" value="Legend" style="shape=table;startSize=30;container=1;collapsible=0;childLayout=tableLayout;fontSize=16;align=left;verticalAlign=top;fillColor=none;strokeColor=none;fontColor=#4D4D4D;fontStyle=1;spacingLeft=6;spacing=0;resizable=0;" vertex="1" parent="1">
          <mxGeometry x="647" width="180" height="210" as="geometry" />
        </mxCell>
        <mxCell id="5LWan2oKhqf2gRx4XjIY-4" value="" style="shape=tableRow;horizontal=0;startSize=0;swimlaneHead=0;swimlaneBody=0;strokeColor=inherit;top=0;left=0;bottom=0;right=0;collapsible=0;dropTarget=0;fillColor=none;points=[[0,0.5],[1,0.5]];portConstraint=eastwest;fontSize=12;" vertex="1" parent="5LWan2oKhqf2gRx4XjIY-3">
          <mxGeometry y="30" width="180" height="30" as="geometry" />
        </mxCell>
        <mxCell id="5LWan2oKhqf2gRx4XjIY-5" value="Person" style="shape=partialRectangle;html=1;whiteSpace=wrap;connectable=0;strokeColor=inherit;overflow=hidden;fillColor=#1E4074;top=0;left=0;bottom=0;right=0;pointerEvents=1;fontSize=12;align=left;fontColor=#FFFFFF;gradientColor=none;spacingLeft=10;spacingRight=4;" vertex="1" parent="5LWan2oKhqf2gRx4XjIY-4">
          <mxGeometry width="180" height="30" as="geometry">
            <mxRectangle width="180" height="30" as="alternateBounds" />
          </mxGeometry>
        </mxCell>
        <mxCell id="5LWan2oKhqf2gRx4XjIY-6" value="" style="shape=tableRow;horizontal=0;startSize=0;swimlaneHead=0;swimlaneBody=0;strokeColor=inherit;top=0;left=0;bottom=0;right=0;collapsible=0;dropTarget=0;fillColor=none;points=[[0,0.5],[1,0.5]];portConstraint=eastwest;fontSize=12;" vertex="1" parent="5LWan2oKhqf2gRx4XjIY-3">
          <mxGeometry y="60" width="180" height="30" as="geometry" />
        </mxCell>
        <mxCell id="5LWan2oKhqf2gRx4XjIY-7" value="Software System" style="shape=partialRectangle;html=1;whiteSpace=wrap;connectable=0;strokeColor=inherit;overflow=hidden;fillColor=#3162AF;top=0;left=0;bottom=0;right=0;pointerEvents=1;fontSize=12;align=left;fontColor=#FFFFFF;gradientColor=none;spacingLeft=10;spacingRight=4;" vertex="1" parent="5LWan2oKhqf2gRx4XjIY-6">
          <mxGeometry width="180" height="30" as="geometry">
            <mxRectangle width="180" height="30" as="alternateBounds" />
          </mxGeometry>
        </mxCell>
        <mxCell id="5LWan2oKhqf2gRx4XjIY-8" value="" style="shape=tableRow;horizontal=0;startSize=0;swimlaneHead=0;swimlaneBody=0;strokeColor=inherit;top=0;left=0;bottom=0;right=0;collapsible=0;dropTarget=0;fillColor=none;points=[[0,0.5],[1,0.5]];portConstraint=eastwest;fontSize=12;" vertex="1" parent="5LWan2oKhqf2gRx4XjIY-3">
          <mxGeometry y="90" width="180" height="30" as="geometry" />
        </mxCell>
        <mxCell id="5LWan2oKhqf2gRx4XjIY-9" value="Container" style="shape=partialRectangle;html=1;whiteSpace=wrap;connectable=0;strokeColor=inherit;overflow=hidden;fillColor=#52a2d8;top=0;left=0;bottom=0;right=0;pointerEvents=1;fontSize=12;align=left;fontColor=#FFFFFF;gradientColor=none;spacingLeft=10;spacingRight=4;" vertex="1" parent="5LWan2oKhqf2gRx4XjIY-8">
          <mxGeometry width="180" height="30" as="geometry">
            <mxRectangle width="180" height="30" as="alternateBounds" />
          </mxGeometry>
        </mxCell>
        <mxCell id="5LWan2oKhqf2gRx4XjIY-10" value="" style="shape=tableRow;horizontal=0;startSize=0;swimlaneHead=0;swimlaneBody=0;strokeColor=inherit;top=0;left=0;bottom=0;right=0;collapsible=0;dropTarget=0;fillColor=none;points=[[0,0.5],[1,0.5]];portConstraint=eastwest;fontSize=12;" vertex="1" parent="5LWan2oKhqf2gRx4XjIY-3">
          <mxGeometry y="120" width="180" height="30" as="geometry" />
        </mxCell>
        <mxCell id="5LWan2oKhqf2gRx4XjIY-11" value="Component" style="shape=partialRectangle;html=1;whiteSpace=wrap;connectable=0;strokeColor=inherit;overflow=hidden;fillColor=#7dbef2;top=0;left=0;bottom=0;right=0;pointerEvents=1;fontSize=12;align=left;fontColor=#FFFFFF;gradientColor=none;spacingLeft=10;spacingRight=4;" vertex="1" parent="5LWan2oKhqf2gRx4XjIY-10">
          <mxGeometry width="180" height="30" as="geometry">
            <mxRectangle width="180" height="30" as="alternateBounds" />
          </mxGeometry>
        </mxCell>
        <mxCell id="5LWan2oKhqf2gRx4XjIY-12" value="" style="shape=tableRow;horizontal=0;startSize=0;swimlaneHead=0;swimlaneBody=0;strokeColor=inherit;top=0;left=0;bottom=0;right=0;collapsible=0;dropTarget=0;fillColor=none;points=[[0,0.5],[1,0.5]];portConstraint=eastwest;fontSize=12;" vertex="1" parent="5LWan2oKhqf2gRx4XjIY-3">
          <mxGeometry y="150" width="180" height="30" as="geometry" />
        </mxCell>
        <mxCell id="5LWan2oKhqf2gRx4XjIY-13" value="External Person" style="shape=partialRectangle;html=1;whiteSpace=wrap;connectable=0;strokeColor=inherit;overflow=hidden;fillColor=#6b6477;top=0;left=0;bottom=0;right=0;pointerEvents=1;fontSize=12;align=left;fontColor=#FFFFFF;gradientColor=none;spacingLeft=10;spacingRight=4;" vertex="1" parent="5LWan2oKhqf2gRx4XjIY-12">
          <mxGeometry width="180" height="30" as="geometry">
            <mxRectangle width="180" height="30" as="alternateBounds" />
          </mxGeometry>
        </mxCell>
        <mxCell id="5LWan2oKhqf2gRx4XjIY-14" value="" style="shape=tableRow;horizontal=0;startSize=0;swimlaneHead=0;swimlaneBody=0;strokeColor=inherit;top=0;left=0;bottom=0;right=0;collapsible=0;dropTarget=0;fillColor=none;points=[[0,0.5],[1,0.5]];portConstraint=eastwest;fontSize=12;" vertex="1" parent="5LWan2oKhqf2gRx4XjIY-3">
          <mxGeometry y="180" width="180" height="30" as="geometry" />
        </mxCell>
        <mxCell id="5LWan2oKhqf2gRx4XjIY-15" value="External Software System" style="shape=partialRectangle;html=1;whiteSpace=wrap;connectable=0;strokeColor=inherit;overflow=hidden;fillColor=#8b8496;top=0;left=0;bottom=0;right=0;pointerEvents=1;fontSize=12;align=left;fontColor=#FFFFFF;gradientColor=none;spacingLeft=10;spacingRight=4;" vertex="1" parent="5LWan2oKhqf2gRx4XjIY-14">
          <mxGeometry width="180" height="30" as="geometry">
            <mxRectangle width="180" height="30" as="alternateBounds" />
          </mxGeometry>
        </mxCell>
        <object placeholders="1" c4Type="Relationship" c4Description="Views, adds, and changes status of tasks using" label="&lt;div style=&quot;text-align: left&quot;&gt;&lt;div style=&quot;text-align: center&quot;&gt;&lt;b&gt;%c4Description%&lt;/b&gt;&lt;/div&gt;" id="5LWan2oKhqf2gRx4XjIY-16">
          <mxCell style="endArrow=blockThin;html=1;fontSize=10;fontColor=#404040;strokeWidth=1;endFill=1;strokeColor=#828282;elbow=vertical;metaEdit=1;endSize=14;startSize=14;jumpStyle=arc;jumpSize=16;rounded=0;edgeStyle=orthogonalEdgeStyle;exitX=0.5;exitY=1;exitDx=0;exitDy=0;exitPerimeter=0;entryX=0.5;entryY=0;entryDx=0;entryDy=0;entryPerimeter=0;" edge="1" parent="1" source="5LWan2oKhqf2gRx4XjIY-2" target="5LWan2oKhqf2gRx4XjIY-19">
            <mxGeometry x="-0.0045" width="240" relative="1" as="geometry">
              <mxPoint x="540" y="250" as="sourcePoint" />
              <mxPoint x="500" y="370" as="targetPoint" />
              <Array as="points">
                <mxPoint x="414" y="260" />
                <mxPoint x="414" y="260" />
              </Array>
              <mxPoint as="offset" />
            </mxGeometry>
          </mxCell>
        </object>
        <object placeholders="1" c4Type="Relationship" c4Description="Makes API calls to" label="&lt;div style=&quot;text-align: left&quot;&gt;&lt;div style=&quot;text-align: center&quot;&gt;&lt;b&gt;%c4Description%&lt;/b&gt;&lt;/div&gt;" id="5LWan2oKhqf2gRx4XjIY-17">
          <mxCell style="endArrow=blockThin;html=1;fontSize=10;fontColor=#404040;strokeWidth=1;endFill=1;strokeColor=#828282;elbow=vertical;metaEdit=1;endSize=14;startSize=14;jumpStyle=arc;jumpSize=16;rounded=0;edgeStyle=orthogonalEdgeStyle;entryX=0.5;entryY=0;entryDx=0;entryDy=0;entryPerimeter=0;exitX=0.5;exitY=1;exitDx=0;exitDy=0;exitPerimeter=0;" edge="1" parent="1" source="5LWan2oKhqf2gRx4XjIY-20" target="5LWan2oKhqf2gRx4XjIY-1">
            <mxGeometry width="240" relative="1" as="geometry">
              <mxPoint x="340" y="690" as="sourcePoint" />
              <mxPoint x="780" y="200" as="targetPoint" />
            </mxGeometry>
          </mxCell>
        </object>
        <object placeholders="1" c4Name="To Do system" c4Type="SystemScopeBoundary" c4Application="Software System" label="&lt;font style=&quot;font-size: 16px&quot;&gt;&lt;b&gt;&lt;div style=&quot;text-align: left&quot;&gt;%c4Name%&lt;/div&gt;&lt;/b&gt;&lt;/font&gt;&lt;div style=&quot;text-align: left&quot;&gt;[%c4Application%]&lt;/div&gt;" id="5LWan2oKhqf2gRx4XjIY-18">
          <mxCell style="rounded=1;fontSize=11;whiteSpace=wrap;html=1;dashed=1;arcSize=20;fillColor=none;strokeColor=#666666;fontColor=#333333;labelBackgroundColor=none;align=left;verticalAlign=bottom;labelBorderColor=none;spacingTop=0;spacing=10;dashPattern=8 4;metaEdit=1;rotatable=0;perimeter=rectanglePerimeter;noLabel=0;labelPadding=0;allowArrows=0;connectable=0;expand=0;recursiveResize=0;editable=1;pointerEvents=0;absoluteArcSize=1;points=[[0.25,0,0],[0.5,0,0],[0.75,0,0],[1,0.25,0],[1,0.5,0],[1,0.75,0],[0.75,1,0],[0.5,1,0],[0.25,1,0],[0,0.75,0],[0,0.5,0],[0,0.25,0]];" vertex="1" parent="1">
            <mxGeometry x="199" y="290" width="430" height="400" as="geometry" />
          </mxCell>
        </object>
        <object placeholders="1" c4Name="Multi-page application" c4Type="Container" c4Technology="HTML" c4Description="Description of container role/responsibility." label="&lt;font style=&quot;font-size: 16px&quot;&gt;&lt;b&gt;%c4Name%&lt;/b&gt;&lt;/font&gt;&lt;div&gt;[%c4Type%: %c4Technology%]&lt;/div&gt;&lt;br&gt;&lt;div&gt;&lt;font style=&quot;font-size: 11px&quot;&gt;&lt;font color=&quot;#E6E6E6&quot;&gt;%c4Description%&lt;/font&gt;&lt;/div&gt;" id="5LWan2oKhqf2gRx4XjIY-19">
          <mxCell style="rounded=1;whiteSpace=wrap;html=1;fontSize=11;labelBackgroundColor=none;fillColor=#23A2D9;fontColor=#ffffff;align=center;arcSize=10;strokeColor=#0E7DAD;metaEdit=1;resizable=0;points=[[0.25,0,0],[0.5,0,0],[0.75,0,0],[1,0.25,0],[1,0.5,0],[1,0.75,0],[0.75,1,0],[0.5,1,0],[0.25,1,0],[0,0.75,0],[0,0.5,0],[0,0.25,0]];" vertex="1" parent="1">
            <mxGeometry x="294" y="335" width="240" height="120" as="geometry" />
          </mxCell>
        </object>
        <object placeholders="1" c4Name="Backend Application" c4Type="Container" c4Technology="Python / Flask" c4Description="Description of container role/responsibility." label="&lt;font style=&quot;font-size: 16px&quot;&gt;&lt;b&gt;%c4Name%&lt;/b&gt;&lt;/font&gt;&lt;div&gt;[%c4Type%: %c4Technology%]&lt;/div&gt;&lt;br&gt;&lt;div&gt;&lt;font style=&quot;font-size: 11px&quot;&gt;&lt;font color=&quot;#E6E6E6&quot;&gt;%c4Description%&lt;/font&gt;&lt;/div&gt;" id="5LWan2oKhqf2gRx4XjIY-20">
          <mxCell style="rounded=1;whiteSpace=wrap;html=1;fontSize=11;labelBackgroundColor=none;fillColor=#23A2D9;fontColor=#ffffff;align=center;arcSize=10;strokeColor=#0E7DAD;metaEdit=1;resizable=0;points=[[0.25,0,0],[0.5,0,0],[0.75,0,0],[1,0.25,0],[1,0.5,0],[1,0.75,0],[0.75,1,0],[0.5,1,0],[0.25,1,0],[0,0.75,0],[0,0.5,0],[0,0.25,0]];" vertex="1" parent="1">
            <mxGeometry x="294" y="520" width="240" height="120" as="geometry" />
          </mxCell>
        </object>
        <object placeholders="1" c4Type="Relationship" c4Description="Makes API calls to" label="&lt;div style=&quot;text-align: left&quot;&gt;&lt;div style=&quot;text-align: center&quot;&gt;&lt;b&gt;%c4Description%&lt;/b&gt;&lt;/div&gt;" id="5LWan2oKhqf2gRx4XjIY-21">
          <mxCell style="endArrow=blockThin;html=1;fontSize=10;fontColor=#404040;strokeWidth=1;endFill=1;strokeColor=#828282;elbow=vertical;metaEdit=1;endSize=14;startSize=14;jumpStyle=arc;jumpSize=16;rounded=0;edgeStyle=orthogonalEdgeStyle;exitX=0.5;exitY=1;exitDx=0;exitDy=0;exitPerimeter=0;entryX=0.5;entryY=0;entryDx=0;entryDy=0;entryPerimeter=0;" edge="1" parent="1" source="5LWan2oKhqf2gRx4XjIY-19" target="5LWan2oKhqf2gRx4XjIY-20">
            <mxGeometry width="240" relative="1" as="geometry">
              <mxPoint x="440" y="470" as="sourcePoint" />
              <mxPoint x="680" y="470" as="targetPoint" />
            </mxGeometry>
          </mxCell>
        </object>
        <object placeholders="1" c4Name="Trello" c4Type="Software System" c4Description="Stores the To Do items" label="&lt;font style=&quot;font-size: 16px&quot;&gt;&lt;b&gt;%c4Name%&lt;/b&gt;&lt;/font&gt;&lt;div&gt;[%c4Type%]&lt;/div&gt;&lt;br&gt;&lt;div&gt;&lt;font style=&quot;font-size: 11px&quot;&gt;&lt;font color=&quot;#cccccc&quot;&gt;%c4Description%&lt;/font&gt;&lt;/div&gt;" id="slpxisFlZUsiOtPbzHO1-1">
          <mxCell style="rounded=1;whiteSpace=wrap;html=1;labelBackgroundColor=none;fillColor=#8C8496;fontColor=#ffffff;align=center;arcSize=10;strokeColor=#736782;metaEdit=1;resizable=0;points=[[0.25,0,0],[0.5,0,0],[0.75,0,0],[1,0.25,0],[1,0.5,0],[1,0.75,0],[0.75,1,0],[0.5,1,0],[0.25,1,0],[0,0.75,0],[0,0.5,0],[0,0.25,0]];" vertex="1" parent="1">
            <mxGeometry x="294" y="770" width="240" height="120" as="geometry" />
          </mxCell>
        </object>
        <object placeholders="1" c4Name="To Do app user" c4Type="Person" c4Description="A user of the To Do app" label="&lt;font style=&quot;font-size: 16px&quot;&gt;&lt;b&gt;%c4Name%&lt;/b&gt;&lt;/font&gt;&lt;div&gt;[%c4Type%]&lt;/div&gt;&lt;br&gt;&lt;div&gt;&lt;font style=&quot;font-size: 11px&quot;&gt;&lt;font color=&quot;#cccccc&quot;&gt;%c4Description%&lt;/font&gt;&lt;/div&gt;" id="slpxisFlZUsiOtPbzHO1-2">
          <mxCell style="html=1;fontSize=11;dashed=0;whiteSpace=wrap;fillColor=#083F75;strokeColor=#06315C;fontColor=#ffffff;shape=mxgraph.c4.person2;align=center;metaEdit=1;points=[[0.5,0,0],[1,0.5,0],[1,0.75,0],[0.75,1,0],[0.5,1,0],[0.25,1,0],[0,0.75,0],[0,0.5,0]];resizable=0;" vertex="1" parent="1">
            <mxGeometry x="314" y="40" width="200" height="180" as="geometry" />
          </mxCell>
        </object>
        <mxCell id="slpxisFlZUsiOtPbzHO1-3" value="Legend" style="shape=table;startSize=30;container=1;collapsible=0;childLayout=tableLayout;fontSize=16;align=left;verticalAlign=top;fillColor=none;strokeColor=none;fontColor=#4D4D4D;fontStyle=1;spacingLeft=6;spacing=0;resizable=0;" vertex="1" parent="1">
          <mxGeometry x="647" width="180" height="210" as="geometry" />
        </mxCell>
        <mxCell id="slpxisFlZUsiOtPbzHO1-4" value="" style="shape=tableRow;horizontal=0;startSize=0;swimlaneHead=0;swimlaneBody=0;strokeColor=inherit;top=0;left=0;bottom=0;right=0;collapsible=0;dropTarget=0;fillColor=none;points=[[0,0.5],[1,0.5]];portConstraint=eastwest;fontSize=12;" vertex="1" parent="slpxisFlZUsiOtPbzHO1-3">
          <mxGeometry y="30" width="180" height="30" as="geometry" />
        </mxCell>
        <mxCell id="slpxisFlZUsiOtPbzHO1-5" value="Person" style="shape=partialRectangle;html=1;whiteSpace=wrap;connectable=0;strokeColor=inherit;overflow=hidden;fillColor=#1E4074;top=0;left=0;bottom=0;right=0;pointerEvents=1;fontSize=12;align=left;fontColor=#FFFFFF;gradientColor=none;spacingLeft=10;spacingRight=4;" vertex="1" parent="slpxisFlZUsiOtPbzHO1-4">
          <mxGeometry width="180" height="30" as="geometry">
            <mxRectangle width="180" height="30" as="alternateBounds" />
          </mxGeometry>
        </mxCell>
        <mxCell id="slpxisFlZUsiOtPbzHO1-6" value="" style="shape=tableRow;horizontal=0;startSize=0;swimlaneHead=0;swimlaneBody=0;strokeColor=inherit;top=0;left=0;bottom=0;right=0;collapsible=0;dropTarget=0;fillColor=none;points=[[0,0.5],[1,0.5]];portConstraint=eastwest;fontSize=12;" vertex="1" parent="slpxisFlZUsiOtPbzHO1-3">
          <mxGeometry y="60" width="180" height="30" as="geometry" />
        </mxCell>
        <mxCell id="slpxisFlZUsiOtPbzHO1-7" value="Software System" style="shape=partialRectangle;html=1;whiteSpace=wrap;connectable=0;strokeColor=inherit;overflow=hidden;fillColor=#3162AF;top=0;left=0;bottom=0;right=0;pointerEvents=1;fontSize=12;align=left;fontColor=#FFFFFF;gradientColor=none;spacingLeft=10;spacingRight=4;" vertex="1" parent="slpxisFlZUsiOtPbzHO1-6">
          <mxGeometry width="180" height="30" as="geometry">
            <mxRectangle width="180" height="30" as="alternateBounds" />
          </mxGeometry>
        </mxCell>
        <mxCell id="slpxisFlZUsiOtPbzHO1-8" value="" style="shape=tableRow;horizontal=0;startSize=0;swimlaneHead=0;swimlaneBody=0;strokeColor=inherit;top=0;left=0;bottom=0;right=0;collapsible=0;dropTarget=0;fillColor=none;points=[[0,0.5],[1,0.5]];portConstraint=eastwest;fontSize=12;" vertex="1" parent="slpxisFlZUsiOtPbzHO1-3">
          <mxGeometry y="90" width="180" height="30" as="geometry" />
        </mxCell>
        <mxCell id="slpxisFlZUsiOtPbzHO1-9" value="Container" style="shape=partialRectangle;html=1;whiteSpace=wrap;connectable=0;strokeColor=inherit;overflow=hidden;fillColor=#52a2d8;top=0;left=0;bottom=0;right=0;pointerEvents=1;fontSize=12;align=left;fontColor=#FFFFFF;gradientColor=none;spacingLeft=10;spacingRight=4;" vertex="1" parent="slpxisFlZUsiOtPbzHO1-8">
          <mxGeometry width="180" height="30" as="geometry">
            <mxRectangle width="180" height="30" as="alternateBounds" />
          </mxGeometry>
        </mxCell>
        <mxCell id="slpxisFlZUsiOtPbzHO1-10" value="" style="shape=tableRow;horizontal=0;startSize=0;swimlaneHead=0;swimlaneBody=0;strokeColor=inherit;top=0;left=0;bottom=0;right=0;collapsible=0;dropTarget=0;fillColor=none;points=[[0,0.5],[1,0.5]];portConstraint=eastwest;fontSize=12;" vertex="1" parent="slpxisFlZUsiOtPbzHO1-3">
          <mxGeometry y="120" width="180" height="30" as="geometry" />
        </mxCell>
        <mxCell id="slpxisFlZUsiOtPbzHO1-11" value="Component" style="shape=partialRectangle;html=1;whiteSpace=wrap;connectable=0;strokeColor=inherit;overflow=hidden;fillColor=#7dbef2;top=0;left=0;bottom=0;right=0;pointerEvents=1;fontSize=12;align=left;fontColor=#FFFFFF;gradientColor=none;spacingLeft=10;spacingRight=4;" vertex="1" parent="slpxisFlZUsiOtPbzHO1-10">
          <mxGeometry width="180" height="30" as="geometry">
            <mxRectangle width="180" height="30" as="alternateBounds" />
          </mxGeometry>
        </mxCell>
        <mxCell id="slpxisFlZUsiOtPbzHO1-12" value="" style="shape=tableRow;horizontal=0;startSize=0;swimlaneHead=0;swimlaneBody=0;strokeColor=inherit;top=0;left=0;bottom=0;right=0;collapsible=0;dropTarget=0;fillColor=none;points=[[0,0.5],[1,0.5]];portConstraint=eastwest;fontSize=12;" vertex="1" parent="slpxisFlZUsiOtPbzHO1-3">
          <mxGeometry y="150" width="180" height="30" as="geometry" />
        </mxCell>
        <mxCell id="slpxisFlZUsiOtPbzHO1-13" value="External Person" style="shape=partialRectangle;html=1;whiteSpace=wrap;connectable=0;strokeColor=inherit;overflow=hidden;fillColor=#6b6477;top=0;left=0;bottom=0;right=0;pointerEvents=1;fontSize=12;align=left;fontColor=#FFFFFF;gradientColor=none;spacingLeft=10;spacingRight=4;" vertex="1" parent="slpxisFlZUsiOtPbzHO1-12">
          <mxGeometry width="180" height="30" as="geometry">
            <mxRectangle width="180" height="30" as="alternateBounds" />
          </mxGeometry>
        </mxCell>
        <mxCell id="slpxisFlZUsiOtPbzHO1-14" value="" style="shape=tableRow;horizontal=0;startSize=0;swimlaneHead=0;swimlaneBody=0;strokeColor=inherit;top=0;left=0;bottom=0;right=0;collapsible=0;dropTarget=0;fillColor=none;points=[[0,0.5],[1,0.5]];portConstraint=eastwest;fontSize=12;" vertex="1" parent="slpxisFlZUsiOtPbzHO1-3">
          <mxGeometry y="180" width="180" height="30" as="geometry" />
        </mxCell>
        <mxCell id="slpxisFlZUsiOtPbzHO1-15" value="External Software System" style="shape=partialRectangle;html=1;whiteSpace=wrap;connectable=0;strokeColor=inherit;overflow=hidden;fillColor=#8b8496;top=0;left=0;bottom=0;right=0;pointerEvents=1;fontSize=12;align=left;fontColor=#FFFFFF;gradientColor=none;spacingLeft=10;spacingRight=4;" vertex="1" parent="slpxisFlZUsiOtPbzHO1-14">
          <mxGeometry width="180" height="30" as="geometry">
            <mxRectangle width="180" height="30" as="alternateBounds" />
          </mxGeometry>
        </mxCell>
        <object placeholders="1" c4Type="Relationship" c4Description="Views, adds, and changes status of tasks using" label="&lt;div style=&quot;text-align: left&quot;&gt;&lt;div style=&quot;text-align: center&quot;&gt;&lt;b&gt;%c4Description%&lt;/b&gt;&lt;/div&gt;" id="slpxisFlZUsiOtPbzHO1-16">
          <mxCell style="endArrow=blockThin;html=1;fontSize=10;fontColor=#404040;strokeWidth=1;endFill=1;strokeColor=#828282;elbow=vertical;metaEdit=1;endSize=14;startSize=14;jumpStyle=arc;jumpSize=16;rounded=0;edgeStyle=orthogonalEdgeStyle;exitX=0.5;exitY=1;exitDx=0;exitDy=0;exitPerimeter=0;entryX=0.5;entryY=0;entryDx=0;entryDy=0;entryPerimeter=0;" edge="1" parent="1" source="slpxisFlZUsiOtPbzHO1-2" target="slpxisFlZUsiOtPbzHO1-19">
            <mxGeometry x="-0.0045" width="240" relative="1" as="geometry">
              <mxPoint x="540" y="250" as="sourcePoint" />
              <mxPoint x="500" y="370" as="targetPoint" />
              <Array as="points">
                <mxPoint x="414" y="260" />
                <mxPoint x="414" y="260" />
              </Array>
              <mxPoint as="offset" />
            </mxGeometry>
          </mxCell>
        </object>
        <object placeholders="1" c4Type="Relationship" c4Description="Makes API calls to" label="&lt;div style=&quot;text-align: left&quot;&gt;&lt;div style=&quot;text-align: center&quot;&gt;&lt;b&gt;%c4Description%&lt;/b&gt;&lt;/div&gt;" id="slpxisFlZUsiOtPbzHO1-17">
          <mxCell style="endArrow=blockThin;html=1;fontSize=10;fontColor=#404040;strokeWidth=1;endFill=1;strokeColor=#828282;elbow=vertical;metaEdit=1;endSize=14;startSize=14;jumpStyle=arc;jumpSize=16;rounded=0;edgeStyle=orthogonalEdgeStyle;entryX=0.5;entryY=0;entryDx=0;entryDy=0;entryPerimeter=0;exitX=0.5;exitY=1;exitDx=0;exitDy=0;exitPerimeter=0;" edge="1" parent="1" source="slpxisFlZUsiOtPbzHO1-20" target="slpxisFlZUsiOtPbzHO1-1">
            <mxGeometry width="240" relative="1" as="geometry">
              <mxPoint x="340" y="690" as="sourcePoint" />
              <mxPoint x="780" y="200" as="targetPoint" />
            </mxGeometry>
          </mxCell>
        </object>
        <object placeholders="1" c4Name="To Do system" c4Type="SystemScopeBoundary" c4Application="Software System" label="&lt;font style=&quot;font-size: 16px&quot;&gt;&lt;b&gt;&lt;div style=&quot;text-align: left&quot;&gt;%c4Name%&lt;/div&gt;&lt;/b&gt;&lt;/font&gt;&lt;div style=&quot;text-align: left&quot;&gt;[%c4Application%]&lt;/div&gt;" id="slpxisFlZUsiOtPbzHO1-18">
          <mxCell style="rounded=1;fontSize=11;whiteSpace=wrap;html=1;dashed=1;arcSize=20;fillColor=none;strokeColor=#666666;fontColor=#333333;labelBackgroundColor=none;align=left;verticalAlign=bottom;labelBorderColor=none;spacingTop=0;spacing=10;dashPattern=8 4;metaEdit=1;rotatable=0;perimeter=rectanglePerimeter;noLabel=0;labelPadding=0;allowArrows=0;connectable=0;expand=0;recursiveResize=0;editable=1;pointerEvents=0;absoluteArcSize=1;points=[[0.25,0,0],[0.5,0,0],[0.75,0,0],[1,0.25,0],[1,0.5,0],[1,0.75,0],[0.75,1,0],[0.5,1,0],[0.25,1,0],[0,0.75,0],[0,0.5,0],[0,0.25,0]];" vertex="1" parent="1">
            <mxGeometry x="199" y="290" width="430" height="400" as="geometry" />
          </mxCell>
        </object>
        <object placeholders="1" c4Name="Flask Web Server" c4Type="Container" c4Technology="Flask, HTML" c4Description="Delivers page content and passes on requests" label="&lt;font style=&quot;font-size: 16px&quot;&gt;&lt;b&gt;%c4Name%&lt;/b&gt;&lt;/font&gt;&lt;div&gt;[%c4Type%: %c4Technology%]&lt;/div&gt;&lt;br&gt;&lt;div&gt;&lt;font style=&quot;font-size: 11px&quot;&gt;&lt;font color=&quot;#E6E6E6&quot;&gt;%c4Description%&lt;/font&gt;&lt;/div&gt;" id="slpxisFlZUsiOtPbzHO1-19">
          <mxCell style="rounded=1;whiteSpace=wrap;html=1;fontSize=11;labelBackgroundColor=none;fillColor=#23A2D9;fontColor=#ffffff;align=center;arcSize=10;strokeColor=#0E7DAD;metaEdit=1;resizable=0;points=[[0.25,0,0],[0.5,0,0],[0.75,0,0],[1,0.25,0],[1,0.5,0],[1,0.75,0],[0.75,1,0],[0.5,1,0],[0.25,1,0],[0,0.75,0],[0,0.5,0],[0,0.25,0]];" vertex="1" parent="1">
            <mxGeometry x="294" y="335" width="240" height="120" as="geometry" />
          </mxCell>
        </object>
        <object placeholders="1" c4Name="To Do Application" c4Type="Container" c4Technology="Python App" c4Description="Provides To Do app functionality" label="&lt;font style=&quot;font-size: 16px&quot;&gt;&lt;b&gt;%c4Name%&lt;/b&gt;&lt;/font&gt;&lt;div&gt;[%c4Type%: %c4Technology%]&lt;/div&gt;&lt;br&gt;&lt;div&gt;&lt;font style=&quot;font-size: 11px&quot;&gt;&lt;font color=&quot;#E6E6E6&quot;&gt;%c4Description%&lt;/font&gt;&lt;/div&gt;" id="slpxisFlZUsiOtPbzHO1-20">
          <mxCell style="rounded=1;whiteSpace=wrap;html=1;fontSize=11;labelBackgroundColor=none;fillColor=#23A2D9;fontColor=#ffffff;align=center;arcSize=10;strokeColor=#0E7DAD;metaEdit=1;resizable=0;points=[[0.25,0,0],[0.5,0,0],[0.75,0,0],[1,0.25,0],[1,0.5,0],[1,0.75,0],[0.75,1,0],[0.5,1,0],[0.25,1,0],[0,0.75,0],[0,0.5,0],[0,0.25,0]];" vertex="1" parent="1">
            <mxGeometry x="294" y="520" width="240" height="120" as="geometry" />
          </mxCell>
        </object>
        <object placeholders="1" c4Type="Relationship" c4Description="Passes requests to" label="&lt;div style=&quot;text-align: left&quot;&gt;&lt;div style=&quot;text-align: center&quot;&gt;&lt;b&gt;%c4Description%&lt;/b&gt;&lt;/div&gt;" id="slpxisFlZUsiOtPbzHO1-21">
          <mxCell style="endArrow=blockThin;html=1;fontSize=10;fontColor=#404040;strokeWidth=1;endFill=1;strokeColor=#828282;elbow=vertical;metaEdit=1;endSize=14;startSize=14;jumpStyle=arc;jumpSize=16;rounded=0;edgeStyle=orthogonalEdgeStyle;exitX=0.5;exitY=1;exitDx=0;exitDy=0;exitPerimeter=0;entryX=0.5;entryY=0;entryDx=0;entryDy=0;entryPerimeter=0;" edge="1" parent="1" source="slpxisFlZUsiOtPbzHO1-19" target="slpxisFlZUsiOtPbzHO1-20">
            <mxGeometry x="0.0154" width="240" relative="1" as="geometry">
              <mxPoint x="440" y="470" as="sourcePoint" />
              <mxPoint x="680" y="470" as="targetPoint" />
              <mxPoint as="offset" />
            </mxGeometry>
          </mxCell>
        </object>
      </root>
    </mxGraphModel>
  </diagram>
  <diagram id="UVOqWAX-3klxDiycrpnj" name="Components">
    <mxGraphModel dx="2074" dy="1132" grid="1" gridSize="10" guides="1" tooltips="1" connect="1" arrows="1" fold="1" page="1" pageScale="1" pageWidth="827" pageHeight="1169" math="0" shadow="0">
      <root>
        <mxCell id="0" />
        <mxCell id="1" parent="0" />
        <object placeholders="1" c4Name="Trello" c4Type="Software System" c4Description="Stores the To Do items" label="&lt;font style=&quot;font-size: 16px&quot;&gt;&lt;b&gt;%c4Name%&lt;/b&gt;&lt;/font&gt;&lt;div&gt;[%c4Type%]&lt;/div&gt;&lt;br&gt;&lt;div&gt;&lt;font style=&quot;font-size: 11px&quot;&gt;&lt;font color=&quot;#cccccc&quot;&gt;%c4Description%&lt;/font&gt;&lt;/div&gt;" id="pa7QT7n0EBnLlMhqd31P-1">
          <mxCell style="rounded=1;whiteSpace=wrap;html=1;labelBackgroundColor=none;fillColor=#8C8496;fontColor=#ffffff;align=center;arcSize=10;strokeColor=#736782;metaEdit=1;resizable=0;points=[[0.25,0,0],[0.5,0,0],[0.75,0,0],[1,0.25,0],[1,0.5,0],[1,0.75,0],[0.75,1,0],[0.5,1,0],[0.25,1,0],[0,0.75,0],[0,0.5,0],[0,0.25,0]];" vertex="1" parent="1">
            <mxGeometry x="294" y="940" width="240" height="120" as="geometry" />
          </mxCell>
        </object>
        <mxCell id="pa7QT7n0EBnLlMhqd31P-3" value="Legend" style="shape=table;startSize=30;container=1;collapsible=0;childLayout=tableLayout;fontSize=16;align=left;verticalAlign=top;fillColor=none;strokeColor=none;fontColor=#4D4D4D;fontStyle=1;spacingLeft=6;spacing=0;resizable=0;" vertex="1" parent="1">
          <mxGeometry x="647" width="180" height="210" as="geometry" />
        </mxCell>
        <mxCell id="pa7QT7n0EBnLlMhqd31P-4" value="" style="shape=tableRow;horizontal=0;startSize=0;swimlaneHead=0;swimlaneBody=0;strokeColor=inherit;top=0;left=0;bottom=0;right=0;collapsible=0;dropTarget=0;fillColor=none;points=[[0,0.5],[1,0.5]];portConstraint=eastwest;fontSize=12;" vertex="1" parent="pa7QT7n0EBnLlMhqd31P-3">
          <mxGeometry y="30" width="180" height="30" as="geometry" />
        </mxCell>
        <mxCell id="pa7QT7n0EBnLlMhqd31P-5" value="Person" style="shape=partialRectangle;html=1;whiteSpace=wrap;connectable=0;strokeColor=inherit;overflow=hidden;fillColor=#1E4074;top=0;left=0;bottom=0;right=0;pointerEvents=1;fontSize=12;align=left;fontColor=#FFFFFF;gradientColor=none;spacingLeft=10;spacingRight=4;" vertex="1" parent="pa7QT7n0EBnLlMhqd31P-4">
          <mxGeometry width="180" height="30" as="geometry">
            <mxRectangle width="180" height="30" as="alternateBounds" />
          </mxGeometry>
        </mxCell>
        <mxCell id="pa7QT7n0EBnLlMhqd31P-6" value="" style="shape=tableRow;horizontal=0;startSize=0;swimlaneHead=0;swimlaneBody=0;strokeColor=inherit;top=0;left=0;bottom=0;right=0;collapsible=0;dropTarget=0;fillColor=none;points=[[0,0.5],[1,0.5]];portConstraint=eastwest;fontSize=12;" vertex="1" parent="pa7QT7n0EBnLlMhqd31P-3">
          <mxGeometry y="60" width="180" height="30" as="geometry" />
        </mxCell>
        <mxCell id="pa7QT7n0EBnLlMhqd31P-7" value="Software System" style="shape=partialRectangle;html=1;whiteSpace=wrap;connectable=0;strokeColor=inherit;overflow=hidden;fillColor=#3162AF;top=0;left=0;bottom=0;right=0;pointerEvents=1;fontSize=12;align=left;fontColor=#FFFFFF;gradientColor=none;spacingLeft=10;spacingRight=4;" vertex="1" parent="pa7QT7n0EBnLlMhqd31P-6">
          <mxGeometry width="180" height="30" as="geometry">
            <mxRectangle width="180" height="30" as="alternateBounds" />
          </mxGeometry>
        </mxCell>
        <mxCell id="pa7QT7n0EBnLlMhqd31P-8" value="" style="shape=tableRow;horizontal=0;startSize=0;swimlaneHead=0;swimlaneBody=0;strokeColor=inherit;top=0;left=0;bottom=0;right=0;collapsible=0;dropTarget=0;fillColor=none;points=[[0,0.5],[1,0.5]];portConstraint=eastwest;fontSize=12;" vertex="1" parent="pa7QT7n0EBnLlMhqd31P-3">
          <mxGeometry y="90" width="180" height="30" as="geometry" />
        </mxCell>
        <mxCell id="pa7QT7n0EBnLlMhqd31P-9" value="Container" style="shape=partialRectangle;html=1;whiteSpace=wrap;connectable=0;strokeColor=inherit;overflow=hidden;fillColor=#52a2d8;top=0;left=0;bottom=0;right=0;pointerEvents=1;fontSize=12;align=left;fontColor=#FFFFFF;gradientColor=none;spacingLeft=10;spacingRight=4;" vertex="1" parent="pa7QT7n0EBnLlMhqd31P-8">
          <mxGeometry width="180" height="30" as="geometry">
            <mxRectangle width="180" height="30" as="alternateBounds" />
          </mxGeometry>
        </mxCell>
        <mxCell id="pa7QT7n0EBnLlMhqd31P-10" value="" style="shape=tableRow;horizontal=0;startSize=0;swimlaneHead=0;swimlaneBody=0;strokeColor=inherit;top=0;left=0;bottom=0;right=0;collapsible=0;dropTarget=0;fillColor=none;points=[[0,0.5],[1,0.5]];portConstraint=eastwest;fontSize=12;" vertex="1" parent="pa7QT7n0EBnLlMhqd31P-3">
          <mxGeometry y="120" width="180" height="30" as="geometry" />
        </mxCell>
        <mxCell id="pa7QT7n0EBnLlMhqd31P-11" value="Component" style="shape=partialRectangle;html=1;whiteSpace=wrap;connectable=0;strokeColor=inherit;overflow=hidden;fillColor=#7dbef2;top=0;left=0;bottom=0;right=0;pointerEvents=1;fontSize=12;align=left;fontColor=#FFFFFF;gradientColor=none;spacingLeft=10;spacingRight=4;" vertex="1" parent="pa7QT7n0EBnLlMhqd31P-10">
          <mxGeometry width="180" height="30" as="geometry">
            <mxRectangle width="180" height="30" as="alternateBounds" />
          </mxGeometry>
        </mxCell>
        <mxCell id="pa7QT7n0EBnLlMhqd31P-12" value="" style="shape=tableRow;horizontal=0;startSize=0;swimlaneHead=0;swimlaneBody=0;strokeColor=inherit;top=0;left=0;bottom=0;right=0;collapsible=0;dropTarget=0;fillColor=none;points=[[0,0.5],[1,0.5]];portConstraint=eastwest;fontSize=12;" vertex="1" parent="pa7QT7n0EBnLlMhqd31P-3">
          <mxGeometry y="150" width="180" height="30" as="geometry" />
        </mxCell>
        <mxCell id="pa7QT7n0EBnLlMhqd31P-13" value="External Person" style="shape=partialRectangle;html=1;whiteSpace=wrap;connectable=0;strokeColor=inherit;overflow=hidden;fillColor=#6b6477;top=0;left=0;bottom=0;right=0;pointerEvents=1;fontSize=12;align=left;fontColor=#FFFFFF;gradientColor=none;spacingLeft=10;spacingRight=4;" vertex="1" parent="pa7QT7n0EBnLlMhqd31P-12">
          <mxGeometry width="180" height="30" as="geometry">
            <mxRectangle width="180" height="30" as="alternateBounds" />
          </mxGeometry>
        </mxCell>
        <mxCell id="pa7QT7n0EBnLlMhqd31P-14" value="" style="shape=tableRow;horizontal=0;startSize=0;swimlaneHead=0;swimlaneBody=0;strokeColor=inherit;top=0;left=0;bottom=0;right=0;collapsible=0;dropTarget=0;fillColor=none;points=[[0,0.5],[1,0.5]];portConstraint=eastwest;fontSize=12;" vertex="1" parent="pa7QT7n0EBnLlMhqd31P-3">
          <mxGeometry y="180" width="180" height="30" as="geometry" />
        </mxCell>
        <mxCell id="pa7QT7n0EBnLlMhqd31P-15" value="External Software System" style="shape=partialRectangle;html=1;whiteSpace=wrap;connectable=0;strokeColor=inherit;overflow=hidden;fillColor=#8b8496;top=0;left=0;bottom=0;right=0;pointerEvents=1;fontSize=12;align=left;fontColor=#FFFFFF;gradientColor=none;spacingLeft=10;spacingRight=4;" vertex="1" parent="pa7QT7n0EBnLlMhqd31P-14">
          <mxGeometry width="180" height="30" as="geometry">
            <mxRectangle width="180" height="30" as="alternateBounds" />
          </mxGeometry>
        </mxCell>
        <object placeholders="1" c4Type="Relationship" c4Description="Makes API calls to" label="&lt;div style=&quot;text-align: left&quot;&gt;&lt;div style=&quot;text-align: center&quot;&gt;&lt;b&gt;%c4Description%&lt;/b&gt;&lt;/div&gt;" id="pa7QT7n0EBnLlMhqd31P-17">
          <mxCell style="endArrow=blockThin;html=1;fontSize=10;fontColor=#404040;strokeWidth=1;endFill=1;strokeColor=#828282;elbow=vertical;metaEdit=1;endSize=14;startSize=14;jumpStyle=arc;jumpSize=16;rounded=0;edgeStyle=orthogonalEdgeStyle;entryX=0.5;entryY=0;entryDx=0;entryDy=0;entryPerimeter=0;exitX=0.5;exitY=1;exitDx=0;exitDy=0;exitPerimeter=0;" edge="1" parent="1" source="ZlVgrDEFk0qobBRo9Dhe-3" target="pa7QT7n0EBnLlMhqd31P-1">
            <mxGeometry width="240" relative="1" as="geometry">
              <mxPoint x="590" y="860" as="sourcePoint" />
              <mxPoint x="780" y="200" as="targetPoint" />
            </mxGeometry>
          </mxCell>
        </object>
        <object placeholders="1" c4Name="Flask Web Server" c4Type="Container" c4Technology="Flask, HTML" c4Description="Delivers page content and passes on requests" label="&lt;font style=&quot;font-size: 16px&quot;&gt;&lt;b&gt;%c4Name%&lt;/b&gt;&lt;/font&gt;&lt;div&gt;[%c4Type%: %c4Technology%]&lt;/div&gt;&lt;br&gt;&lt;div&gt;&lt;font style=&quot;font-size: 11px&quot;&gt;&lt;font color=&quot;#E6E6E6&quot;&gt;%c4Description%&lt;/font&gt;&lt;/div&gt;" id="pa7QT7n0EBnLlMhqd31P-19">
          <mxCell style="rounded=1;whiteSpace=wrap;html=1;fontSize=11;labelBackgroundColor=none;fillColor=#23A2D9;fontColor=#ffffff;align=center;arcSize=10;strokeColor=#0E7DAD;metaEdit=1;resizable=0;points=[[0.25,0,0],[0.5,0,0],[0.75,0,0],[1,0.25,0],[1,0.5,0],[1,0.75,0],[0.75,1,0],[0.5,1,0],[0.25,1,0],[0,0.75,0],[0,0.5,0],[0,0.25,0]];" vertex="1" parent="1">
            <mxGeometry x="294" y="90" width="240" height="120" as="geometry" />
          </mxCell>
        </object>
        <object placeholders="1" c4Type="Relationship" c4Description="Passes requests to" label="&lt;div style=&quot;text-align: left&quot;&gt;&lt;div style=&quot;text-align: center&quot;&gt;&lt;b&gt;%c4Description%&lt;/b&gt;&lt;/div&gt;" id="pa7QT7n0EBnLlMhqd31P-21">
          <mxCell style="endArrow=blockThin;html=1;fontSize=10;fontColor=#404040;strokeWidth=1;endFill=1;strokeColor=#828282;elbow=vertical;metaEdit=1;endSize=14;startSize=14;jumpStyle=arc;jumpSize=16;rounded=0;edgeStyle=orthogonalEdgeStyle;exitX=0.5;exitY=1;exitDx=0;exitDy=0;exitPerimeter=0;entryX=0.5;entryY=0;entryDx=0;entryDy=0;entryPerimeter=0;" edge="1" parent="1" source="pa7QT7n0EBnLlMhqd31P-19" target="ZlVgrDEFk0qobBRo9Dhe-5">
            <mxGeometry x="0.0154" width="240" relative="1" as="geometry">
              <mxPoint x="440" y="470" as="sourcePoint" />
              <mxPoint x="1350" y="440" as="targetPoint" />
              <mxPoint as="offset" />
            </mxGeometry>
          </mxCell>
        </object>
        <object placeholders="1" c4Name="To Do Application" c4Type="ContainerScopeBoundary" c4Application="Container" label="&lt;font style=&quot;font-size: 16px&quot;&gt;&lt;b&gt;&lt;div style=&quot;text-align: left&quot;&gt;%c4Name%&lt;/div&gt;&lt;/b&gt;&lt;/font&gt;&lt;div style=&quot;text-align: left&quot;&gt;[%c4Application%]&lt;/div&gt;" id="ZlVgrDEFk0qobBRo9Dhe-1">
          <mxCell style="rounded=1;fontSize=11;whiteSpace=wrap;html=1;dashed=1;arcSize=20;fillColor=none;strokeColor=#666666;fontColor=#333333;labelBackgroundColor=none;align=left;verticalAlign=bottom;labelBorderColor=none;spacingTop=0;spacing=10;dashPattern=8 4;metaEdit=1;rotatable=0;perimeter=rectanglePerimeter;noLabel=0;labelPadding=0;allowArrows=0;connectable=0;expand=0;recursiveResize=0;editable=1;pointerEvents=0;absoluteArcSize=1;points=[[0.25,0,0],[0.5,0,0],[0.75,0,0],[1,0.25,0],[1,0.5,0],[1,0.75,0],[0.75,1,0],[0.5,1,0],[0.25,1,0],[0,0.75,0],[0,0.5,0],[0,0.25,0]];" vertex="1" parent="1">
            <mxGeometry x="29" y="295" width="770" height="530" as="geometry" />
          </mxCell>
        </object>
        <object placeholders="1" c4Name="Trello Client" c4Type="Component" c4Technology="Python" c4Description="Makes requests to Trello" label="&lt;font style=&quot;font-size: 16px&quot;&gt;&lt;b&gt;%c4Name%&lt;/b&gt;&lt;/font&gt;&lt;div&gt;[%c4Type%: %c4Technology%]&lt;/div&gt;&lt;br&gt;&lt;div&gt;&lt;font style=&quot;font-size: 11px&quot;&gt;%c4Description%&lt;/font&gt;&lt;/div&gt;" id="ZlVgrDEFk0qobBRo9Dhe-3">
          <mxCell style="rounded=1;whiteSpace=wrap;html=1;labelBackgroundColor=none;fillColor=#63BEF2;fontColor=#ffffff;align=center;arcSize=6;strokeColor=#2086C9;metaEdit=1;resizable=0;points=[[0.25,0,0],[0.5,0,0],[0.75,0,0],[1,0.25,0],[1,0.5,0],[1,0.75,0],[0.75,1,0],[0.5,1,0],[0.25,1,0],[0,0.75,0],[0,0.5,0],[0,0.25,0]];" vertex="1" parent="1">
            <mxGeometry x="294" y="670" width="240" height="120" as="geometry" />
          </mxCell>
        </object>
        <object placeholders="1" c4Name="App Controller" c4Type="Component" c4Technology="Python" c4Description="Handles routing of requests" label="&lt;font style=&quot;font-size: 16px&quot;&gt;&lt;b&gt;%c4Name%&lt;/b&gt;&lt;/font&gt;&lt;div&gt;[%c4Type%: %c4Technology%]&lt;/div&gt;&lt;br&gt;&lt;div&gt;&lt;font style=&quot;font-size: 11px&quot;&gt;%c4Description%&lt;/font&gt;&lt;/div&gt;" id="ZlVgrDEFk0qobBRo9Dhe-5">
          <mxCell style="rounded=1;whiteSpace=wrap;html=1;labelBackgroundColor=none;fillColor=#63BEF2;fontColor=#ffffff;align=center;arcSize=6;strokeColor=#2086C9;metaEdit=1;resizable=0;points=[[0.25,0,0],[0.5,0,0],[0.75,0,0],[1,0.25,0],[1,0.5,0],[1,0.75,0],[0.75,1,0],[0.5,1,0],[0.25,1,0],[0,0.75,0],[0,0.5,0],[0,0.25,0]];" vertex="1" parent="1">
            <mxGeometry x="294" y="320" width="240" height="120" as="geometry" />
          </mxCell>
        </object>
        <object placeholders="1" c4Type="Relationship" c4Description="Makes function calls to" label="&lt;div style=&quot;text-align: left&quot;&gt;&lt;div style=&quot;text-align: center&quot;&gt;&lt;b&gt;%c4Description%&lt;/b&gt;&lt;/div&gt;" id="ZlVgrDEFk0qobBRo9Dhe-6">
          <mxCell style="endArrow=blockThin;html=1;fontSize=10;fontColor=#404040;strokeWidth=1;endFill=1;strokeColor=#828282;elbow=vertical;metaEdit=1;endSize=14;startSize=14;jumpStyle=arc;jumpSize=16;rounded=0;edgeStyle=orthogonalEdgeStyle;exitX=0.5;exitY=1;exitDx=0;exitDy=0;exitPerimeter=0;entryX=0.5;entryY=0;entryDx=0;entryDy=0;entryPerimeter=0;" edge="1" parent="1" source="ZlVgrDEFk0qobBRo9Dhe-5" target="ZlVgrDEFk0qobBRo9Dhe-3">
            <mxGeometry width="240" relative="1" as="geometry">
              <mxPoint x="480" y="540" as="sourcePoint" />
              <mxPoint x="720" y="540" as="targetPoint" />
              <mxPoint as="offset" />
            </mxGeometry>
          </mxCell>
        </object>
        <object placeholders="1" c4Name="Templates" c4Type="Component" c4Technology="HTML" c4Description="HTML pages to display the information" label="&lt;font style=&quot;font-size: 16px&quot;&gt;&lt;b&gt;%c4Name%&lt;/b&gt;&lt;/font&gt;&lt;div&gt;[%c4Type%: %c4Technology%]&lt;/div&gt;&lt;br&gt;&lt;div&gt;&lt;font style=&quot;font-size: 11px&quot;&gt;%c4Description%&lt;/font&gt;&lt;/div&gt;" id="ZlVgrDEFk0qobBRo9Dhe-7">
          <mxCell style="rounded=1;whiteSpace=wrap;html=1;labelBackgroundColor=none;fillColor=#63BEF2;fontColor=#ffffff;align=center;arcSize=6;strokeColor=#2086C9;metaEdit=1;resizable=0;points=[[0.25,0,0],[0.5,0,0],[0.75,0,0],[1,0.25,0],[1,0.5,0],[1,0.75,0],[0.75,1,0],[0.5,1,0],[0.25,1,0],[0,0.75,0],[0,0.5,0],[0,0.25,0]];" vertex="1" parent="1">
            <mxGeometry x="510" y="465" width="240" height="120" as="geometry" />
          </mxCell>
        </object>
        <object placeholders="1" c4Name="Items" c4Type="Component" c4Technology="Python Class" c4Description="Python class that represents a To Do item" label="&lt;font style=&quot;font-size: 16px&quot;&gt;&lt;b&gt;%c4Name%&lt;/b&gt;&lt;/font&gt;&lt;div&gt;[%c4Type%: %c4Technology%]&lt;/div&gt;&lt;br&gt;&lt;div&gt;&lt;font style=&quot;font-size: 11px&quot;&gt;%c4Description%&lt;/font&gt;&lt;/div&gt;" id="ZlVgrDEFk0qobBRo9Dhe-8">
          <mxCell style="rounded=1;whiteSpace=wrap;html=1;labelBackgroundColor=none;fillColor=#63BEF2;fontColor=#ffffff;align=center;arcSize=6;strokeColor=#2086C9;metaEdit=1;resizable=0;points=[[0.25,0,0],[0.5,0,0],[0.75,0,0],[1,0.25,0],[1,0.5,0],[1,0.75,0],[0.75,1,0],[0.5,1,0],[0.25,1,0],[0,0.75,0],[0,0.5,0],[0,0.25,0]];" vertex="1" parent="1">
            <mxGeometry x="80" y="500" width="240" height="120" as="geometry" />
          </mxCell>
        </object>
        <object placeholders="1" c4Type="Relationship" c4Description="Used by" label="&lt;div style=&quot;text-align: left&quot;&gt;&lt;div style=&quot;text-align: center&quot;&gt;&lt;b&gt;%c4Description%&lt;/b&gt;&lt;/div&gt;" id="ZlVgrDEFk0qobBRo9Dhe-9">
          <mxCell style="endArrow=blockThin;html=1;fontSize=10;fontColor=#404040;strokeWidth=1;endFill=1;strokeColor=#828282;elbow=vertical;metaEdit=1;endSize=14;startSize=14;jumpStyle=arc;jumpSize=16;rounded=0;edgeStyle=orthogonalEdgeStyle;exitX=0.5;exitY=0;exitDx=0;exitDy=0;exitPerimeter=0;entryX=0;entryY=0.5;entryDx=0;entryDy=0;entryPerimeter=0;" edge="1" parent="1" source="ZlVgrDEFk0qobBRo9Dhe-8" target="ZlVgrDEFk0qobBRo9Dhe-5">
            <mxGeometry width="240" relative="1" as="geometry">
              <mxPoint x="530" y="640" as="sourcePoint" />
              <mxPoint x="770" y="640" as="targetPoint" />
            </mxGeometry>
          </mxCell>
        </object>
        <object placeholders="1" c4Type="Relationship" c4Description="Used by" label="&lt;div style=&quot;text-align: left&quot;&gt;&lt;div style=&quot;text-align: center&quot;&gt;&lt;b&gt;%c4Description%&lt;/b&gt;&lt;/div&gt;" id="ZlVgrDEFk0qobBRo9Dhe-10">
          <mxCell style="endArrow=blockThin;html=1;fontSize=10;fontColor=#404040;strokeWidth=1;endFill=1;strokeColor=#828282;elbow=vertical;metaEdit=1;endSize=14;startSize=14;jumpStyle=arc;jumpSize=16;rounded=0;edgeStyle=orthogonalEdgeStyle;exitX=0.5;exitY=1;exitDx=0;exitDy=0;exitPerimeter=0;entryX=0;entryY=0.5;entryDx=0;entryDy=0;entryPerimeter=0;" edge="1" parent="1" source="ZlVgrDEFk0qobBRo9Dhe-8" target="ZlVgrDEFk0qobBRo9Dhe-3">
            <mxGeometry width="240" relative="1" as="geometry">
              <mxPoint x="170" y="515" as="sourcePoint" />
              <mxPoint x="304" y="390" as="targetPoint" />
              <mxPoint as="offset" />
            </mxGeometry>
          </mxCell>
        </object>
        <object placeholders="1" c4Type="Relationship" c4Description="Passed to" label="&lt;div style=&quot;text-align: left&quot;&gt;&lt;div style=&quot;text-align: center&quot;&gt;&lt;b&gt;%c4Description%&lt;/b&gt;&lt;/div&gt;" id="ZlVgrDEFk0qobBRo9Dhe-13">
          <mxCell style="endArrow=blockThin;html=1;fontSize=10;fontColor=#404040;strokeWidth=1;endFill=1;strokeColor=#828282;elbow=vertical;metaEdit=1;endSize=14;startSize=14;jumpStyle=arc;jumpSize=16;rounded=0;edgeStyle=orthogonalEdgeStyle;exitX=0.5;exitY=0;exitDx=0;exitDy=0;exitPerimeter=0;entryX=1;entryY=0.5;entryDx=0;entryDy=0;entryPerimeter=0;" edge="1" parent="1" source="ZlVgrDEFk0qobBRo9Dhe-7" target="ZlVgrDEFk0qobBRo9Dhe-5">
            <mxGeometry width="240" relative="1" as="geometry">
              <mxPoint x="530" y="640" as="sourcePoint" />
              <mxPoint x="770" y="640" as="targetPoint" />
            </mxGeometry>
          </mxCell>
        </object>
      </root>
    </mxGraphModel>
  </diagram>
</mxfile>
